<svg width="1603" height="1458" viewBox="0 0 1603 1458" fill="none" xmlns="http://www.w3.org/2000/svg">
<g opacity="0.03">
<path fill-rule="evenodd" clip-rule="evenodd" d="M564.208 101.204C565.014 101.256 565.825 100.973 566.428 100.435C709.43 -27.284 880.618 -21.54 1030.04 52.6705C1179.79 127.041 1307.89 270.244 1364.4 417.223C1392.44 490.184 1414.1 551.187 1432.61 602.022C1451.11 652.876 1466.45 693.522 1481.86 725.85C1497.27 758.175 1512.7 782.08 1531.36 799.508C1550 816.912 1571.93 827.933 1600.45 834.359C1602.37 834.792 1603.13 837.256 1601.63 838.655C1575.58 862.931 1547.32 869.26 1522.13 869.935C1498.41 870.571 1478.35 866.85 1444.84 847.987C1442.7 846.783 1440.08 848.504 1440.39 850.939C1445.72 892.548 1457.86 914.902 1480.19 923.531C1492.05 928.113 1506.98 928.917 1525.68 926.428C1544.37 923.941 1566.7 918.183 1593.28 909.771C1595.46 909.082 1597.3 911.438 1596.23 913.381C1551.27 995.34 1473.27 1010.8 1392.39 1027.11C1311.35 1043.44 1227.24 1060.64 1168.13 1145.13C1048.36 1316.35 866.798 1419.42 637.212 1367.48C523.749 1341.82 409.566 1377.1 315.014 1410.86C267.819 1427.72 225.423 1444.23 190.635 1452.44C155.947 1460.62 128.097 1460.74 110.546 1443.9C109.38 1442.78 109.599 1440.89 110.893 1440.02C157.891 1408.45 184.504 1355.12 185.626 1302.44C186.699 1252.05 163.807 1202.61 140.646 1172C139.419 1170.38 137.722 1170.5 136.761 1172.18C136.666 1172.35 136.61 1172.53 136.579 1172.72C131.453 1203.83 133.626 1232.32 138.626 1273.94C138.747 1274.94 138.347 1276.32 137.126 1276.94C135.692 1277.65 133.957 1277.32 133.126 1275.94C-16.462 1044.28 -29.9414 756.318 42.9551 512.352C79.409 390.351 141.237 283.026 228.407 208.471C315.295 134.159 427.29 92.4686 564.208 101.204ZM1053.88 577.133C1052.67 575.649 1050.33 576.078 1049.66 577.836L1049.6 578.016C1047.96 583.522 1043 599.686 1037.84 612.194C1037.41 613.247 1036.39 613.949 1035.26 614.017C993.297 616.499 968.321 619.101 927.903 627.12C926.757 627.347 925.572 626.895 924.881 625.952C911.904 608.228 893.99 583.939 889.123 577.343C887.901 575.687 885.355 576.143 884.757 578.063L884.705 578.254C882.896 586.013 876.509 614.074 874.545 631.762C874.4 633.07 873.432 634.141 872.145 634.413C837.439 641.737 816.367 647.589 787.101 656.486C786.306 656.728 785.438 656.631 784.717 656.216C770.595 648.095 758.5 641.916 753.468 639.398L751.721 638.529L751.519 638.44C750.565 638.069 749.464 638.31 748.767 639.1L748.623 639.278C746.168 642.622 734.811 658.256 723.832 676.11C723.451 676.73 722.857 677.194 722.162 677.408C709.527 681.302 699.572 683.585 689.705 686.096C679.994 688.568 670.419 691.249 658.62 695.883C657.672 696.255 656.589 696.123 655.755 695.539C623.599 673.039 598.681 665.979 591.762 664.338L590.606 664.076L590.401 664.041C589.376 663.908 588.375 664.428 587.901 665.37C585.71 669.729 573.21 695.265 561.846 732.723C561.575 733.615 560.891 734.346 560.019 734.677C503.043 756.352 471.947 769.018 423.077 792.289C422.074 792.767 420.881 792.65 419.956 792.034C411.528 786.422 400.59 784.152 395.597 783.357L394.623 783.209L394.435 783.188C392.508 783.043 391.3 785.033 391.953 786.667C393.316 790.074 396.171 798.583 395.563 808.654C395.502 809.66 394.875 810.562 393.985 811.034C325.978 847.064 307.846 856.348 276.27 874.009L269.7 877.695C268.727 878.243 268.223 879.389 268.491 880.482C279.759 926.428 288.699 952.166 306.939 995.785C307.809 997.866 310.817 997.839 311.607 995.686C355.25 876.639 448.79 788.251 622.389 747.108C623.809 746.771 625.294 747.515 625.85 748.865C660.663 833.325 644.342 919.215 599.619 988.173C554.399 1057.9 480.202 1110.21 400.72 1126.08C398.809 1126.47 398.129 1128.73 399.293 1130.15C535.579 1295.66 731.537 1339.91 892.152 1286.31C1052.8 1232.7 1177.94 1081.27 1172.65 855.886L1172.64 855.723C1172.5 854.111 1170.83 852.969 1169.24 853.581L1169.09 853.648C1091.12 889.769 997.876 879.187 919.642 845.552C842.512 812.392 780.437 757.032 762.019 702.602C761.598 701.356 762.076 699.992 763.16 699.247C825.404 656.449 887.809 638.595 953.314 643.131C1019.61 647.722 1089.22 675.255 1165.17 723.348C1166.93 724.459 1169.24 723.06 1169.01 720.963C1164.02 674.748 1160.02 649.112 1149.42 611.609L1148.37 607.942L1148.3 607.735C1147.91 606.725 1146.9 606.072 1145.82 606.131C1116.51 607.733 1104.43 607.131 1074.33 610.058C1072.96 610.191 1071.66 609.378 1071.16 608.096C1066.31 595.683 1058.31 583.489 1054.7 578.29L1054 577.288L1053.88 577.133ZM458.62 967.528C457.92 965.806 455.69 965.467 454.47 966.747L454.355 966.875C432.606 992.985 420.009 1010.37 410.28 1028.41C401.775 1044.18 395.484 1060.42 387.17 1083.36L383.471 1093.61C382.786 1095.52 384.545 1097.42 386.492 1096.89C419.337 1088.06 441.711 1083.45 462.679 1074.52C483.736 1065.55 503.374 1052.22 531.026 1026C532.521 1024.58 531.758 1022 529.688 1021.68C506.932 1018.12 492.589 1012.79 482.252 1004.35C471.916 995.913 465.406 984.226 458.62 967.528ZM619.632 835.378C619.692 833.551 617.829 832.295 616.178 832.966L616.019 833.038C591.174 845.158 574.939 853.581 560.275 863.414C546.518 872.639 534.18 883.079 517.42 898.916L514.007 902.157C512.653 903.449 513.144 905.749 514.93 906.357C530.931 911.808 541.277 916.886 550.119 924.571C558.988 932.279 566.44 942.693 576.501 959.023C577.477 960.607 579.79 960.6 580.771 959.039C596.209 934.449 605.501 917.368 611.137 899.481C616.775 881.587 618.724 862.978 619.632 835.378ZM1039.3 752.593C1037.56 752.035 1035.8 753.509 1036.05 755.335L1036.29 757.124C1038.7 775.434 1038.63 788.466 1034.91 800.203C1031.19 811.934 1023.77 822.543 1011.1 835.891L1009.86 837.192C1008.42 838.684 1009.32 841.178 1011.36 841.428C1045.18 845.577 1069.47 846.033 1091.36 842.551C1113.26 839.069 1132.67 831.661 1156.73 820.216C1158.42 819.415 1158.64 817.136 1157.23 816.003L1157.09 815.896L1152.66 812.816C1109.08 782.638 1084.78 770.815 1043.64 754.32L1039.47 752.654L1039.3 752.593ZM944.706 734.614C894.947 733.641 870.123 734.683 830.934 744.963L829.057 745.46C827.184 745.959 826.569 748.316 827.949 749.669C859.602 780.684 879.646 799.418 929.991 818.914C931.741 819.591 933.61 818.16 933.392 816.285C931.409 799.255 931.178 786.024 933.223 773.949C935.265 761.893 939.591 750.904 946.836 738.385C947.798 736.724 946.601 734.651 944.706 734.614Z" fill="#808080"/>
<path d="M750.721 1248.45C799.391 1159.43 840.312 1123.21 934.361 1087.12C936.316 1086.37 938.563 1086.77 940.103 1088.21C946.025 1093.76 949.348 1098.37 949.041 1112.78C948.991 1115.14 947.411 1117.2 945.217 1117.96C863.568 1146.26 824.807 1184.58 781.365 1263.74C780.615 1265.11 779.34 1266.15 777.845 1266.5C763.634 1269.83 758.197 1265.66 750.89 1254.34C749.756 1252.58 749.717 1250.29 750.721 1248.45Z" fill="#808080"/>
<path d="M854.637 960.761C908.504 997.757 878.169 1055.32 816.844 1061.59C815.132 1061.77 813.416 1061.09 812.285 1059.77C805.728 1052.09 804.095 1046.91 807.878 1036.72C808.534 1034.95 810.074 1033.71 811.883 1033.3C835.611 1028 870.84 1014.17 829.732 979.051C787.517 942.983 750.14 912.53 723.806 832.322C723.122 830.239 723.651 827.89 725.267 826.441C731.806 820.581 737.409 818.528 747.339 818.998C749.553 819.102 751.428 820.626 752.192 822.75C767.053 864.102 801.491 924.261 854.637 960.761Z" fill="#808080"/>
</g>
</svg>
